PathFileType	4	(X/Y/Z)	DARI_DATA/Captury_Subj4_bilateral_squat01.trc
DataRate	CameraRate	NumFrames	NumMarkers	Units	OrigDataRate	OrigDataStartFrame	OrigNumFrames
60	60	7	47	mm	60.00239944458008	170	226
Frame#	Time		LeftUpLeg_		RightUpLeg_		LeftLeg_		RightLeg_		LeftFoot_		RightFoot_		LeftToeBase_		RightToeBase_		Knee_Lateral_r		Knee_Lateral_l		Ankle_Lateral_r		Ankle_Lateral_l		LeftArm_		LeftForeArm_		LeftHand_		LeftHandEE		RightArm_		RightForeArm_		RightHand_		RightHandEE		Spine_		Spine1_		Spine2_		Spine3_		Spine4_		Spine5_		Spine_x		Spine_y		Spine_z		RASI		LASI		RIPS		LIPS		RTHI		LTHI		RTIB		LTIB		RTOE		LTOE		RHEE		LHEE		RHipAngles		LHipAngles		RKneeAngles		LKneeAngles		RAnkleAngles		LAnkleAngles
			X1	Y1	Z1	X2	Y2	Z2	X3	Y3	Z3	X4	Y4	Z4	X5	Y5	Z5	X6	Y6	Z6	X7	Y7	Z7	X8	Y8	Z8	X9	Y9	Z9	X10	Y10	Z10	X11	Y11	Z11	X12	Y12	Z12	X13	Y13	Z13	X14	Y14	Z14	X15	Y15	Z15	X16	Y16	Z16	X17	Y17	Z17	X18	Y18	Z18	X19	Y19	Z19	X20	Y20	Z20	X21	Y21	Z21	X22	Y22	Z22	X23	Y23	Z23	X24	Y24	Z24	X25	Y25	Z25	X26	Y26	Z26	X27	Y27	Z27	X28	Y28	Z28	X29	Y29	Z29	X30	Y30	Z30	X31	Y31	Z31	X32	Y32	Z32	X33	Y33	Z33	X34	Y34	Z34	X35	Y35	Z35	X36	Y36	Z36	X37	Y37	Z37	X38	Y38	Z38	X39	Y39	Z39	X40	Y40	Z40	X41	Y41	Z41	X42	Y42	Z42	X43	Y43	Z43	X44	Y44	Z44	X45	Y45	Z45	X46	Y46	Z46	X47	Y47	Z47

170	2.81667	-90.61147	818.84357	117.94120	76.88020	814.27319	116.21298	-155.39600	450.94730	-43.17780	113.70074	449.11688	-59.31242	-181.60181	87.75900	48.44844	125.11991	88.82446	45.79143	-191.84685	26.28916	-66.78950	143.85600	27.91848	-68.67561	160.21584	449.18970	-55.22166	-201.53033	453.48297	-36.42606	170.04375	91.29390	68.26378	-225.02792	92.49418	73.36842	-153.53831	1320.43433	16.71326	-221.67261	1288.79150	-261.93756	-195.38089	1298.74451	-495.13678	-181.88998	1305.62708	-579.51056	117.67655	1324.39172	28.14984	167.68317	1301.79541	-255.18491	133.64554	1324.62097	-486.46967	127.10131	1334.30896	-571.39093	-4.52409	908.80548	100.05913	-3.91682	1002.21570	60.84126	-5.09034	1076.77466	61.31991	-8.94497	1166.64514	89.13940	-16.68196	1302.70642	83.04816	-28923081178180147754616411384381964288.00000	0.00000	-28923121742999355057957259278884536320.00000	42.45551	907.52356	99.57438	-3.51425	952.42291	82.58172	-3.59753	926.26501	143.68556	133.58504	836.88629	4.38788	-148.29256	844.57788	7.29636	33.00962	892.08521	136.33363	-42.15774	894.13629	137.10924	159.04114	644.14465	43.38335	-185.08316	650.97662	55.53865	157.49857	284.20856	-22.90828	-208.10294	231.95522	-2.17705	148.49925	25.33714	-142.34361	-194.74776	21.70613	-140.44939	133.63126	31.44222	101.36838	-185.93022	29.37961	103.46727	-47.13626	3.88803	4.35185	-45.40821	4.51970	6.42218	-36.24484	-0.04537	-0.09209	-32.14442	-0.14910	-0.22191	-3.61612	-0.21088	11.53197	-1.27618	-5.72076	3.83788
171	2.83333	-91.72811	827.11151	113.85269	75.77349	822.60010	113.40943	-153.03282	453.81699	-35.80386	112.63292	452.34808	-51.08666	-182.13661	89.16760	48.88235	125.16335	89.93896	46.33283	-191.56094	26.45834	-65.75630	144.11005	28.16389	-67.63275	159.13272	452.46994	-46.82671	-199.25662	456.36804	-29.70092	170.00542	92.64612	68.94070	-225.85449	94.21016	73.22523	-153.43884	1330.42419	19.53353	-222.86511	1297.92444	-258.69943	-195.84610	1307.76306	-491.82034	-181.21353	1314.37329	-576.02545	117.60725	1334.19202	31.34311	168.03107	1310.94702	-251.86523	133.43340	1334.23511	-483.02075	125.99093	1344.08630	-567.84924	-5.53129	917.25830	97.49354	-4.59066	1011.32184	59.27515	-5.68506	1086.09851	60.62848	-9.55383	1175.83167	89.60429	-16.96104	1312.20959	85.36721	-28923081178180147754616411384381964288.00000	0.00000	-28923121742999355057957259278884536320.00000	41.45110	915.99292	97.36921	-4.39733	961.03723	80.43237	-4.95614	934.31024	141.28694	133.35512	846.27014	2.25308	-148.53920	853.86255	2.99905	31.71933	900.20978	133.90683	-43.45249	902.23444	134.10574	157.91913	650.26172	45.95646	-184.74326	656.85828	55.88430	156.97826	286.87524	-18.06366	-207.29005	234.37788	0.51820	148.92737	25.11287	-141.27164	-193.60458	21.12312	-139.39433	133.44334	32.95535	102.35313	-187.67555	31.47441	104.51311	-44.88527	3.70029	4.23838	-42.95341	4.20213	6.21665	-33.30565	0.01586	-0.09119	-29.17746	-0.05772	-0.12087	-1.94863	-0.27962	11.37040	0.42061	-5.66419	4.32694
172	2.85000	-92.78302	834.56641	108.84769	74.72278	830.19434	109.02605	-151.09598	456.19797	-28.77882	111.15964	454.31079	-42.26201	-182.36890	90.30597	49.53452	125.78718	90.06277	47.72321	-191.52168	26.40212	-64.46468	144.28757	27.79981	-66.05003	157.66791	454.56918	-38.10177	-197.38618	458.74411	-23.19963	170.66547	93.00472	70.22967	-226.32555	95.61393	73.38604	-153.52211	1339.63074	22.50371	-223.95345	1306.42896	-255.39360	-195.84998	1315.96814	-488.39874	-180.99265	1322.15088	-572.59698	117.35281	1342.89563	34.25398	167.57701	1319.28711	-248.95976	132.38434	1342.87268	-479.99524	125.07224	1352.85376	-564.81989	-6.59574	925.05756	94.45777	-5.50204	1019.87946	57.70451	-6.51013	1094.79797	60.13169	-10.24961	1184.31396	90.29659	-17.24025	1320.92419	87.76742	-28923081178180147754616411384381964288.00000	0.00000	-28923121742999355057957259278884536320.00000	40.38782	923.83124	94.50780	-5.42797	969.13428	78.18381	-6.21804	941.32721	138.54993	132.74779	855.88538	-1.44893	-149.15361	863.24329	-1.74908	30.51707	907.39227	130.71747	-44.65664	909.35437	130.63742	156.68985	655.53815	47.58562	-184.52835	662.05103	55.74821	156.43732	288.43469	-12.70974	-206.48860	236.38057	3.29320	148.87830	24.47319	-139.69147	-193.00255	20.31749	-138.05804	134.12784	33.28765	103.94584	-188.99823	33.31248	105.76404	-41.80501	3.53443	4.01308	-39.98725	3.87910	5.93255	-30.08288	0.03999	-0.07933	-26.27716	0.01638	-0.06350	-0.52391	-0.37123	11.10189	2.01689	-5.48853	4.93150
173	2.86667	-94.15221	841.22791	104.41988	73.35152	836.93170	105.59405	-149.41141	458.49765	-21.94518	109.87555	456.51880	-33.89121	-182.25085	91.46838	50.15919	125.77240	90.55676	48.61342	-191.15240	26.53302	-63.27557	144.15607	28.13899	-65.09386	156.37517	456.88074	-29.64294	-195.77109	461.01657	-16.96245	170.59491	93.61794	71.21493	-226.50180	96.94656	73.42075	-153.68964	1347.63403	25.29451	-224.95288	1313.82715	-252.31764	-195.69568	1323.43909	-485.17773	-181.11597	1329.18970	-569.45508	116.99446	1350.45264	36.67658	166.45258	1326.62122	-246.65329	131.13464	1350.32117	-477.65799	123.68928	1361.27014	-562.35150	-7.92520	931.91705	91.60021	-6.58030	1027.35559	55.98288	-7.49274	1102.41687	59.34098	-11.14651	1191.71777	90.66542	-17.71231	1328.54834	89.95757	-28923081178180147754616411384381964288.00000	0.00000	-28923121742999355057957259278884536320.00000	39.05778	930.71198	91.92955	-6.67949	976.17688	75.83710	-7.83118	947.68335	135.87636	132.05067	863.90692	-4.21665	-149.84721	871.13727	-6.19270	28.97017	913.85687	127.88724	-46.20260	915.78497	127.36029	155.34042	660.41003	49.77068	-184.60892	666.74335	55.72653	155.75385	290.24939	-7.66239	-205.53821	238.29117	5.90332	148.76945	24.78030	-138.73239	-192.06921	19.81441	-136.82297	133.91672	33.80785	104.89124	-189.98633	35.11634	106.89166	-39.36236	3.42425	3.86923	-37.51987	3.55861	5.67805	-27.11615	0.03050	-0.06367	-23.56092	0.03127	-0.05278	0.73326	-0.50320	10.83579	3.49575	-5.17096	5.60395
174	2.88333	-95.75070	847.21735	99.86436	71.74278	842.86853	101.95299	-148.11613	460.56924	-15.31059	108.70418	458.38120	-25.74790	-182.43109	92.52032	50.64714	125.56068	90.88962	49.44384	-191.37376	26.81351	-62.33929	143.88750	28.47904	-64.27663	155.19052	458.87808	-21.37005	-194.53548	463.03479	-10.88794	170.30708	94.01136	72.18744	-226.96124	98.14225	73.33451	-153.99377	1354.58655	27.96081	-225.84567	1320.52136	-249.46796	-195.65034	1329.97534	-482.21472	-181.20848	1335.45154	-566.53406	116.57669	1356.73865	38.87440	165.05856	1333.10083	-244.64034	129.39594	1357.19116	-475.55164	122.68536	1368.42944	-560.26868	-9.43553	938.02051	88.53101	-7.80678	1033.91846	54.07375	-8.58786	1108.96948	58.38669	-12.10421	1197.88794	90.90011	-18.21464	1334.77356	92.08161	-28923081178180147754616411384381964288.00000	0.00000	-28923121742999355057957259278884536320.00000	37.54457	936.80072	89.11684	-8.09154	982.44952	73.25960	-9.59298	953.30231	132.97650	131.07626	871.02728	-7.21785	-150.80438	878.34607	-10.73286	27.24769	919.55634	124.82982	-47.92048	921.50800	123.89249	153.90701	664.73553	51.79319	-184.97760	670.93127	55.59144	155.05133	291.76764	-2.72262	-204.92085	240.04935	8.37175	148.54579	25.17463	-137.91483	-191.86526	19.61539	-135.84540	133.52522	34.09648	105.70281	-191.24869	36.71444	107.76035	-36.98583	3.43156	3.77036	-35.11881	3.19417	5.44567	-24.21311	-0.05744	-0.05232	-20.89728	0.09573	-0.06547	1.87942	-0.66650	10.63896	4.84153	-4.75846	6.30140
175	2.90000	-97.16293	852.21564	95.00777	70.31279	847.92169	98.29077	-146.98970	462.07272	-8.96300	107.30531	459.80743	-17.91160	-182.39894	93.08792	50.90600	125.58266	90.99377	50.13515	-191.24805	26.87642	-61.79279	143.94119	28.81470	-63.70690	153.77808	460.39252	-13.40243	-193.46541	464.51425	-5.16296	170.25423	94.19431	73.01447	-227.23460	98.77576	72.96654	-154.31172	1360.27917	30.34425	-226.75301	1326.21997	-246.93193	-195.90691	1335.90991	-479.58365	-181.12961	1340.58435	-563.89313	116.11707	1361.88013	41.12036	163.47278	1338.73193	-242.62503	127.69897	1363.22156	-473.47711	121.80990	1374.84424	-558.20337	-10.81471	943.17133	85.26009	-8.93511	1039.47278	51.96464	-9.69800	1114.46130	57.23788	-13.33573	1202.92639	90.94863	-19.18359	1339.79175	94.06006	-28923081178180147754616411384381964288.00000	0.00000	-28923121742999355057957259278884536320.00000	36.16042	941.96692	86.18093	-9.38146	987.75769	70.46265	-11.30907	957.98914	129.85997	130.43719	877.24353	-10.13863	-151.41354	884.47003	-15.66370	25.60883	924.34668	121.63515	-49.55138	926.27374	120.16180	152.46268	668.31683	53.66117	-185.32506	674.36511	55.07116	154.32565	292.97943	1.98308	-204.21739	241.25418	10.55116	148.63065	25.66121	-137.34970	-191.23871	19.33235	-135.26582	133.50685	34.08151	106.27930	-192.34500	37.70667	108.24670	-34.68821	3.33486	3.60925	-32.76521	2.92473	5.19694	-21.38954	-0.02280	-0.04215	-18.27442	0.07844	-0.08087	2.89694	-0.82926	10.48898	6.03365	-4.32610	7.00677
176	2.91667	-98.65431	856.35400	90.19830	68.80159	852.01855	94.32735	-146.07524	463.19690	-2.98349	105.70255	460.64987	-10.42476	-182.29054	93.38666	51.02357	125.33134	90.69202	50.68035	-191.18016	26.93027	-61.52779	143.62816	28.99178	-63.43182	152.16830	461.33499	-5.85772	-192.59528	465.57269	0.27750	169.96097	93.90901	73.63908	-227.38603	99.09709	72.54202	-154.89917	1364.65112	32.31603	-227.73334	1330.96143	-244.90236	-196.14964	1340.75012	-477.45096	-181.18739	1345.39343	-561.72955	115.35142	1365.80286	43.39788	162.18674	1343.23865	-240.48087	126.45000	1368.39465	-471.26703	121.02611	1380.88330	-555.90106	-12.25965	947.41901	82.00707	-10.15807	1044.05774	49.92635	-10.83843	1118.90771	56.14395	-14.40129	1206.87451	90.96810	-19.92736	1343.63550	95.82413	-28923081178180147754616411384381964288.00000	0.00000	-28923121742999355057957259278884536320.00000	34.70992	946.20294	83.16523	-10.74933	992.17987	67.75423	-12.99386	961.69995	126.77844	129.50499	882.63995	-13.41805	-152.31242	889.93634	-20.36698	23.96928	928.15820	118.34813	-51.18202	930.10388	116.49508	150.89404	671.13086	55.10020	-185.79166	677.09894	54.51894	153.34756	293.65967	6.38342	-203.57697	242.13528	12.57184	148.28116	26.19526	-137.09135	-190.75470	19.22647	-134.98300	133.25742	33.53889	106.57901	-193.29047	38.31113	108.46616	-32.31875	3.30495	3.46074	-30.41046	2.59600	4.93657	-18.62229	-0.03047	-0.02524	-15.77162	0.11017	-0.09285	3.74956	-0.95509	10.34607	7.06574	-3.92217	7.69976
